<?xml version="1.0" encoding="UTF-8" standalone="no"?>
<svg
   id="Layer_1"
   data-name="Layer 1"
   viewBox="0 0 116.57181 55.067343"
   version="1.1"
   sodipodi:docname="logo-serenity-sketch-grey.svg"
   inkscape:export-filename="Logo - white.png"
   inkscape:export-xdpi="960.50781"
   inkscape:export-ydpi="960.50781"
   inkscape:version="1.3.2 (091e20e, 2023-11-25, custom)"
   width="116.57181"
   height="55.067345"
   xmlns:inkscape="http://www.inkscape.org/namespaces/inkscape"
   xmlns:sodipodi="http://sodipodi.sourceforge.net/DTD/sodipodi-0.dtd"
   xmlns="http://www.w3.org/2000/svg"
   xmlns:svg="http://www.w3.org/2000/svg">
  <defs
     id="defs30" />
  <sodipodi:namedview
     id="namedview30"
     pagecolor="#ffffff"
     bordercolor="#000000"
     borderopacity="0.25"
     inkscape:showpageshadow="2"
     inkscape:pageopacity="0.0"
     inkscape:pagecheckerboard="0"
     inkscape:deskcolor="#d1d1d1"
     inkscape:zoom="6.9412204"
     inkscape:cx="48.838674"
     inkscape:cy="24.131203"
     inkscape:window-width="1920"
     inkscape:window-height="991"
     inkscape:window-x="2391"
     inkscape:window-y="-9"
     inkscape:window-maximized="1"
     inkscape:current-layer="Layer_1" />
  <path
     d="m 25.485928,34.718896 a 0.64,0.64 0 0 0 0.08,-0.19 0.78,0.78 0 0 0 -0.34,-0.89 5.57,5.57 0 0 0 -2.81,-0.2 7.86,7.86 0 0 0 -2.68,0.7 3.81,3.81 0 0 0 0,-1.26 2.64,2.64 0 0 0 -0.36,-1.11 c -0.07,-0.09 -0.15,-0.17 -0.23,-0.26 a 0.67,0.67 0 0 0 -0.42,-0.91 1.29,1.29 0 0 0 -1,0.11 l -0.61,0.3 a 13.29,13.29 0 0 0 -1.14,0.69 v 0 a 15.54,15.54 0 0 0 -0.9,-1.65 c -0.41,-0.68 -0.69,-1.72 -1.5,-2 a 0.69,0.69 0 0 0 -0.45,0 0.66,0.66 0 0 0 -0.54,0 c -2.6000003,0.87 -3.6300003,3.14 -3.9300003,5.59 -0.6,-0.56 -1.2,-1.11 -1.82,-1.64 -0.62,-0.53 -1.52,-1.5 -2.5,-1.23 a 1.21,1.21 0 0 0 -0.85,1.23 c 0,0.2 0.07,0.39 0.1,0.59 0.03,0.2 0,0.41 0,0.61 0,0.2 0,0.5 0,0.74 a 5.14,5.14 0 0 0 -0.8,-0.12 8.56,8.56 0 0 0 -1.41,0.14 1.51,1.51 0 0 0 -1.34000004,0.9 0.81,0.81 0 0 0 0.2,0.81 1,1 0 0 0 0.37,0.25 10.07,10.07 0 0 0 3.41000004,6.43 11.54,11.54 0 0 0 3.86,2.19 18,18 0 0 0 2.2700003,0.69 7.65,7.65 0 0 0 1.05,0.17 3,3 0 0 0 1.38,0.88 0.94,0.94 0 0 0 1.12,-1.17 10.38,10.38 0 0 0 2.37,-3.34 12.92,12.92 0 0 0 0.92,-3.5 7.58,7.58 0 0 1 1.19,-1 c 0.65,-0.45 1.33,-0.89 2,-1.31 a 6,6 0 0 1 2.29,-0.81 c 0.41,-0.06 0.81,-0.1 1.22,-0.13 a 2.69,2.69 0 0 1 0.8,0 17.64,17.64 0 0 1 -0.9,3.27 13,13 0 0 1 -1.74,3.68 7.52,7.52 0 0 1 -3.37,1.94 7.5,7.5 0 0 1 -2.1,0.48 c -0.65,0 -1.25,-0.11 -1.79,0.32 a 0.36,0.36 0 0 0 0.15,0.59 c 0.69,0.23 1.31,-0.24 1.93,-0.51 a 19.46,19.46 0 0 1 2.27,-0.75 8,8 0 0 0 3.44,-1.75 c 1.93,-1.92 2.7,-4.75 3,-7.4 a 0.8,0.8 0 0 0 0.11,-0.17 z m -20.6200003,-2.58 c 0,0 0,-0.01 0,0 z m 0,0.06 z m 0,1.42 c 0,-0.37 -0.07,-0.74 -0.06,-1.11 l 0.4,0.28 1.06,0.63 c 0.67,0.41 1.37,0.78 2.07,1.15 a 0.39,0.39 0 0 0 0.2,0 17.24,17.24 0 0 0 0,2.16 l 0.06,0.81 a 6.36,6.36 0 0 0 -0.43,-0.59 8,8 0 0 0 -0.76,-0.88 14.89,14.89 0 0 0 -2,-1.36 l -0.51,-0.28 z m 3.43,9.3 a 15.55,15.55 0 0 1 -3.4,-1.73 9,9 0 0 1 -3.28,-5.18 c 0.36,0 0.73,-0.12 1.05,-0.12 a 4.08,4.08 0 0 1 1.2,0.2 c 0,0 0,0 0,0.06 a 0.57,0.57 0 0 0 0.77,0.23 h 0.12 c 0.6,0.26 1.16,0.55 1.74,0.84 a 8.07,8.07 0 0 1 0.89,0.43 3.89,3.89 0 0 1 0.78,0.68 0.39,0.39 0 0 0 0.51,0 16.13,16.13 0 0 0 0.7,3.96 c 0.12,0.34 0.28,0.73 0.46,1.13 -0.46,-0.13 -1.01,-0.31 -1.52,-0.5 z m 4.8300003,1.46 a 7.41,7.41 0 0 1 -0.88,-1 6.36,6.36 0 0 1 -0.87,-1.86 19.17,19.17 0 0 1 -0.58,-4.4 c -0.14,-2.41 -0.27,-5.57 1.81,-7.22 a 17.94,17.94 0 0 0 1.22,2.48 c 0.13,0.29 0.24,0.59 0.36,0.89 l -0.28,0.35 a 0.53,0.53 0 0 0 0.13,0.71 0.5,0.5 0 0 0 0.52,0.07 11,11 0 0 1 0.38,2.21 14.3,14.3 0 0 1 -1.79,7.77 z m 3.86,-8.25 a 12.73,12.73 0 0 0 -0.51,-3 l 0.28,-0.18 c 0.36,-0.21 0.72,-0.4 1.09,-0.57 v 0 c 0,0.08 0,0.17 0,0.25 a 0.22,0.22 0 0 1 0,0.08 2.09,2.09 0 0 1 0,0.25 2.8,2.8 0 0 1 0,0.5 l -0.09,0.47 v -0.26 a 2,2 0 0 0 -0.06,0.84 0.69,0.69 0 0 0 0.08,0.21 c 0,0 0,0.08 0,0.12 a 0.67,0.67 0 0 0 0.21,0.32 c -0.34,0.27 -0.68,0.56 -1,0.85 z"
     id="path1"
     style="fill:#f9f9f9" />
  <path
     d="m 113.29593,17.288896 a 6.87,6.87 0 0 0 3.15,-4.72 9,9 0 0 0 0,-2.9999998 7.12,7.12 0 0 0 -0.49,-1.75 7.81,7.81 0 0 0 -0.87,-1.28 c -2.41,-3.43 -6.09,-6.99999998 -10.66,-6.48999998 -0.94,0.11 -0.54,1.75999998 0.37,1.41999998 1.1,-0.41 1.85,0.35 2.43,1.23 a 12.27,12.27 0 0 1 1.15,2.29 c 0.61,1.57 0.75,3.48 -0.46,4.79 -1,1.1099998 -2,2.1999998 -2,3.7999998 a 4.08,4.08 0 0 0 2,3.68 c 0.88,0.44 2,-0.69 1.16,-1.45 a 2.32,2.32 0 0 1 -0.4,-3.52 c 1.16,-1.35 2.2,-2.6599998 1.92,-4.5499998 a 13.88,13.88 0 0 0 -2.22,-4.77 6.6,6.6 0 0 0 -1.48,-1.76 7.08,7.08 0 0 0 -2.1,-1.15999998 V 1.4688962 c 3.8,-0.82999998 7.86,1.93 9.41,5.34 a 9.17,9.17 0 0 1 0.35,1.37 c 0.12,0.42 0.29,0.81 0.39,1.24 a 7.52,7.52 0 0 1 0.14,2.5899998 7.43,7.43 0 0 1 -2.24,4.66 0.4,0.4 0 0 0 0.46,0.63 z"
     id="path2"
     style="fill:#f9f9f9" />
  <path
     d="m 112.51593,16.948896 a 25.08,25.08 0 0 0 -2.43,-0.88 15.47,15.47 0 0 0 -2.6,-0.57 0.76,0.76 0 0 0 -0.69,0.38 2,2 0 0 0 -0.24,1.86 1.79,1.79 0 0 0 1.12,0.91 c 0.45,0.15 0.92,0.21 1.38,0.35 0.46,0.14 1.13,0.39 1.68,0.62 0.55,0.23 1.27,0.73 1.81,0.17 a 3.19,3.19 0 0 0 0.62,-1.36 2.22,2.22 0 0 0 0.12,-0.72 2.9,2.9 0 0 0 -0.09,-0.59 0.44,0.44 0 0 0 -0.64,-0.27 c 0,0 0,0.1 0,0.07 0.36,-0.2 0.59,0.32 0.42,0.59 -0.17,0.27 -0.18,0.25 -0.26,0.38 a 2.94,2.94 0 0 1 -0.66,0.75 0.88,0.88 0 0 0 -0.15,0.12 c -0.11,0.07 -0.1,0.08 0,0 0.1,-0.08 0.15,0 0,-0.08 l -0.52,-0.21 q -0.54,-0.21 -1.11,-0.39 c -0.67,-0.22 -1.4,-0.32 -2.05,-0.6 a 1.49,1.49 0 0 1 -0.27,-0.15 c -0.08,0 -0.07,0 -0.11,-0.11 -0.04,-0.11 0,0 0,0 0,0 0,-0.08 0,-0.09 a 1.92,1.92 0 0 1 0.25,-0.44 l -0.89,0.35 a 41.32,41.32 0 0 1 4.95,1 0.57,0.57 0 0 0 0.32,-1.09 z"
     id="path3"
     style="fill:#f9f9f9" />
  <path
     d="m 107.37593,17.608896 c -0.55,1.22 -1.11,2.43 -1.57,3.68 a 7.78,7.78 0 0 0 -0.81,3.68 1.76,1.76 0 0 0 0.26,0.84 1,1 0 0 0 0.71,0.3 c 0.5,0.07 1,0 1.5,0 a 1.51,1.51 0 0 1 0.68,0.19 2.32,2.32 0 0 0 0.51,0.29 c 0.26,0.07 0.59,0 0.59,-0.33 a 0.09,0.09 0 0 0 -0.14,-0.08 c -0.36,0.2 -0.51,-0.32 -0.68,-0.51 a 1.42,1.42 0 0 0 -0.72,-0.39 7.54,7.54 0 0 1 -1.71,-0.28 l 0.26,0.35 c -0.42,-1.2 0.2,-2.44 0.63,-3.55 0.49,-1.26 0.88,-2.54 1.27,-3.84 0.14,-0.45 -0.57,-0.8 -0.78,-0.34 z"
     id="path4"
     style="fill:#f9f9f9" />
  <path
     d="m 111.63593,19.418896 c -0.52,1 -1.07,1.93 -1.57,2.92 a 15.28,15.28 0 0 0 -0.7,1.48 c -0.09,0.27 -0.2,0.53 -0.3,0.79 a 1.75,1.75 0 0 0 -0.21,0.73 c 0,0.08 0.08,0.17 0.17,0.14 a 1.36,1.36 0 0 0 0.52,-0.46 l 0.53,-0.64 a 5.85,5.85 0 0 0 0.53,-0.7 q 0.22,-0.37 0.42,-0.75 a 21.3,21.3 0 0 0 1.35,-3.17 c 0.17,-0.45 -0.55,-0.77 -0.78,-0.34 z"
     id="path5"
     style="fill:#f9f9f9" />
  <path
     d="m 97.985928,46.458896 a 12,12 0 0 0 -2.12,5.11 c -0.14,0.9 -0.77,3.13 0.58,3.46 1.35,0.33 1.79,-1.55 2.23,-2.36 0.88,-1.62 2.000002,-3.09 3.000002,-4.62 a 32.6,32.6 0 0 0 4.28,-10 c 0.49,-1.83 0.89,-3.67 1.2,-5.54 a 24.18,24.18 0 0 1 1.47,-6.3 c 0.2,-0.43 -0.49,-0.66 -0.57,-0.25 -0.58,3.07 -1.94,5.94 -2.72,9 a 48.45,48.45 0 0 1 -3,9 c -1.29,2.7 -3.060002,5.12 -4.380002,7.8 -0.23,0.46 -0.53,1.62 -1,1.81 -0.47,0.19 -0.38,0.17 -0.21,-0.29 l 0.11,-0.72 c 0.07,-0.43 0.17,-0.85 0.28,-1.27 0.39,-1.55 0.78,-3.1 1.3,-4.6 0.1,-0.29 -0.3,-0.43 -0.46,-0.21 z"
     id="path6"
     style="fill:#f9f9f9" />
  <path
     d="m 105.95593,25.288896 c -2.16,3.3 -3.63,7.12 -5.21,10.72 -0.810002,1.84 -1.470002,3.73 -2.170002,5.61 a 50.19,50.19 0 0 0 -1.63,6 c -0.14,0.57 0.69,1 1,0.44 a 54.58,54.58 0 0 0 2.550002,-5.21 c 0.76,-1.92 1.52,-3.87 2.14,-5.84 1.19,-3.9 2.74,-7.72 3.74,-11.6 a 0.22,0.22 0 0 0 -0.39,-0.17 z"
     id="path7"
     style="fill:#f9f9f9" />
  <path
     d="m 23.815928,15.648896 a 2.42,2.42 0 0 0 -0.88,-2.16 3.28,3.28 0 0 0 -2.83,-0.74 c -1.73,0.33 -3.61,2 -3.38,3.91 0.23,1.91 2.25,2.52 3.65,3.38 0.53,0.31 1.24,0.92 0.92,1.61 -0.32,0.69 -1.19,1 -1.88,1.15 a 2.56,2.56 0 0 1 -2.18,0 3.42,3.42 0 0 1 -0.79,-0.63 c -0.27,-0.29 -0.49,-0.71 -0.87,-0.87 a 0.56,0.56 0 0 0 -0.71,0.22 c -0.23,0.38 0,0.86 0.24,1.2 a 4.07,4.07 0 0 0 1.54,1.72 3.75,3.75 0 0 0 2.7,0.15 6.78,6.78 0 0 0 2.55,-1.08 2.83,2.83 0 0 0 1.15,-2.17 2.9,2.9 0 0 0 -1.08,-2.17 16.08,16.08 0 0 0 -2.56,-1.45 c -0.64,-0.37 -1.16,-1.07 -0.61,-1.75 a 2.48,2.48 0 0 1 1,-0.68 2.34,2.34 0 0 1 0.62,-0.15 3.94,3.94 0 0 1 0.43,0 2.82,2.82 0 0 1 1.06,0.21 4.3,4.3 0 0 1 1.09,0.61 0.5,0.5 0 0 0 0.84,-0.33 z"
     id="path8"
     style="fill:#f9f9f9" />
  <path
     d="m 26.805928,19.088896 a 7.3,7.3 0 0 0 1.08,0.38 c 0.31,0.07 0.63,0.11 1,0.16 l 2.08,0.35 c 1.14,0.19 2.49,0.54 3.55,-0.11 a 3.43,3.43 0 0 0 1.25,-3.33 4.72,4.72 0 0 0 -1.63,-3.38 4.09,4.09 0 0 0 -3.64,-0.23 7.73,7.73 0 0 0 -2.89,1.72 c -1.58,1.5 -2.91,4.13 -2.22,6.34 a 4.31,4.31 0 0 0 2.46,2.64 6.87,6.87 0 0 0 1.83,0.48 8.8,8.8 0 0 0 2.17,-0.13 c 0.12,0 0.08,-0.19 0,-0.2 a 8.43,8.43 0 0 1 -1.51,-0.31 7,7 0 0 1 -1.55,-0.5 3.08,3.08 0 0 1 -1.52,-1.75 4.64,4.64 0 0 1 0.11,-2.58 5.32,5.32 0 0 1 1.07,-1.84 4.91,4.91 0 0 1 3.93,-1.75 1.68,1.68 0 0 1 1.35,1.16 2.21,2.21 0 0 1 -0.1,2.44 c -0.71,0.88 -2.05,0.43 -3,0.29 l -1.8,-0.25 a 8.71,8.71 0 0 0 -1.91,-0.06 0.24,0.24 0 0 0 -0.07,0.46 z"
     id="path9"
     style="fill:#f9f9f9" />
  <path
     d="m 29.675928,23.518896 a 11.32,11.32 0 0 0 2.52,0.4 c 0.42,0 0.84,0 1.26,0 a 5.51,5.51 0 0 0 0.71,-0.09 1.93,1.93 0 0 0 0.79,-0.25 0.83,0.83 0 0 0 -0.58,-1.51 2.17,2.17 0 0 0 -0.67,0.32 l -0.54,0.28 a 6.34,6.34 0 0 1 -1,0.46 7.07,7.07 0 0 1 -2.42,0.31 c 0,0 -0.05,0.07 0,0.08 z"
     id="path10"
     style="fill:#f9f9f9" />
  <path
     d="m 37.965928,12.918896 c 0,0.92 -0.08,1.84 0,2.75 0.08,0.91 0.11,1.77 0.14,2.66 0.03,0.89 0.05,1.78 0.05,2.66 a 18.34,18.34 0 0 1 -0.2,2.77 c -0.17,1.27 2,1.37 2,0 a 25,25 0 0 1 0.27,-3.47 4.68,4.68 0 0 1 1.09,-2.9 5.53,5.53 0 0 1 2.66,-1.52 2.63,2.63 0 0 1 1.15,-0.05 c 0.43,0.13 0.67,0.54 0.92,0.88 a 0.59,0.59 0 0 0 1,-0.4 c 0,-1.18 -1.34,-2 -2.39,-2.27 -1.43,-0.32 -2.93,0.73 -4,1.57 a 5.89,5.89 0 0 0 -2.14,3.53 27.37,27.37 0 0 0 -0.6,4.68 h 2 c -0.09,-0.94 -0.16,-1.84 -0.18,-2.78 -0.02,-0.94 -0.06,-1.84 -0.12,-2.77 -0.06,-0.93 -0.12,-1.84 -0.21,-2.76 a 20.19,20.19 0 0 0 -0.54,-2.68 0.5030159,0.5030159 0 0 0 -1,0.11 z"
     id="path11"
     style="fill:#f9f9f9" />
  <path
     d="m 36.715928,34.618896 a 3.94,3.94 0 0 0 -1.5,-2.27 3.47,3.47 0 0 0 -3.1,-0.39 5.39,5.39 0 0 0 -2.74,1.4 2.28,2.28 0 0 0 -0.3,2.72 4,4 0 0 0 2.2,1.3 12.88,12.88 0 0 1 3,1.36 1.6,1.6 0 0 1 0.65,1 5.86,5.86 0 0 1 0.35,1.65 2.55,2.55 0 0 1 -1.08,2 2.15,2.15 0 0 1 -2.52,-0.1 4.21,4.21 0 0 1 -1.45,-2.47 0.45,0.45 0 0 0 -0.86,0 c -0.76,1.74 0.92,3.7 2.53,4.18 a 4.21,4.21 0 0 0 4.64,-1.94 3.93,3.93 0 0 0 0.44,-2.94 4.47,4.47 0 0 0 -1.6,-2.93 9.4,9.4 0 0 0 -3,-1.33 c -0.41,-0.12 -2.1,-0.28 -1.82,-1 0.16,-0.4 0.68,-0.62 1.05,-0.76 a 4.89,4.89 0 0 1 1.77,-0.42 c 1.19,0 1.88,0.85 2.86,1.32 a 0.35,0.35 0 0 0 0.52,-0.38 z"
     id="path12"
     style="fill:#f9f9f9" />
  <path
     d="m 39.835928,27.688896 a 13,13 0 0 0 -0.53,3.87 c 0,1.33 0.12,2.65 0.16,4 a 27.85,27.85 0 0 1 -0.62,7.94 c -0.41,1.53 2,2.23 2.36,0.69 a 20.83,20.83 0 0 0 0,-8.1 c -0.39,-2.75 -0.74,-5.52 -0.87,-8.3 a 0.28,0.28 0 0 0 -0.54,-0.08 z"
     id="path13"
     style="fill:#f9f9f9" />
  <path
     d="m 40.725928,38.378896 a 11.44,11.44 0 0 0 2.39,-1.82 24.49,24.49 0 0 0 2,-2.34 21,21 0 0 1 4.17,-4.24 1.15,1.15 0 0 0 0.34,-1.69 1.16,1.16 0 0 0 -1.72,-0.15 23,23 0 0 0 -3.88,4.85 c -0.54,0.84 -1.11,1.67 -1.71,2.47 -0.6,0.8 -1.21,1.7 -1.94,2.48 -0.2,0.22 0,0.6 0.32,0.44 z"
     id="path14"
     style="fill:#f9f9f9" />
  <path
     d="m 42.785928,35.598896 c 0.23,0.7 0.48,1.38 0.75,2.06 0.27,0.68 0.46,1.47 0.77,2.17 a 27.84,27.84 0 0 0 2.13,3.86 1.24,1.24 0 0 0 1.65,0.47 1.22,1.22 0 0 0 0.46,-1.65 31.46,31.46 0 0 1 -2.17,-3.84 c -0.3,-0.65 -0.59,-1.3 -0.94,-1.92 a 11.36,11.36 0 0 0 -1.37,-1.87 0.77,0.77 0 0 0 -1.29,0.72 z"
     id="path15"
     style="fill:#f9f9f9" />
  <path
     d="m 50.725928,38.778896 a 32.78,32.78 0 0 0 5.59,0.55 c 1.51,0 3.3,0.05 4.08,-1.48 0.78,-1.53 0.14,-3.05 -0.87,-4.27 a 6.19,6.19 0 0 0 -3.85,-2.44 4.64,4.64 0 0 0 -4,1.59 7.1,7.1 0 0 0 -1.71,4.21 13.4,13.4 0 0 0 0,2.37 6.54,6.54 0 0 0 0.56,2.58 7.59,7.59 0 0 0 3.56,2.68 5,5 0 0 0 2.52,0.22 9,9 0 0 0 2.56,-0.91 c 1.1,-0.55 3.23,-1.78 2.56,-3.3 a 0.32,0.32 0 0 0 -0.49,-0.07 10.82,10.82 0 0 0 -1,1.13 7.54,7.54 0 0 1 -1.29,1 c -1,0.64 -2.47,1.5 -3.64,0.81 a 13,13 0 0 1 -2.84,-1.91 c -0.82,-0.82 -0.78,-2.23 -0.8,-3.32 -0.05,-2 0.57,-4.83 3,-5.17 a 3.68,3.68 0 0 1 2.73,1.14 c 0.7,0.61 1.79,1.59 1.52,2.63 -0.15,0.57 -0.72,0.55 -1.21,0.53 -0.78,0 -1.55,-0.08 -2.33,-0.06 l -2.25,0.07 a 19.8,19.8 0 0 0 -2.41,0.29 0.57,0.57 0 0 0 0,1.09 z"
     id="path16"
     style="fill:#f9f9f9" />
  <path
     d="m 65.855928,28.418896 a 43.35,43.35 0 0 0 -0.66,9.1 c 0,1.52 0.08,3 0.23,4.54 0.13,1.17 0,3.27 1.6,3.37 1.6,0.1 1.53,-2.29 0,-2.3 h -0.05 l 0.81,0.36 c 0.18,0.37 0.21,0.36 0.1,0 l -0.09,-0.45 c -0.06,-0.3 -0.11,-0.6 -0.16,-0.89 -0.11,-0.65 -0.23,-1.3 -0.33,-1.94 a 35.52,35.52 0 0 1 -0.4,-3.83 74.21,74.21 0 0 1 0.06,-7.75 c 0,-0.62 -1,-0.81 -1.11,-0.17 z"
     id="path17"
     style="fill:#f9f9f9" />
  <path
     d="m 61.735928,34.128896 a 11.86,11.86 0 0 0 2.21,0.37 l 2.32,0.06 c 0.77,0 1.55,0 2.32,-0.05 a 9,9 0 0 0 2.43,-0.16 1.12,1.12 0 0 0 0.81,-1 1.08,1.08 0 0 0 -0.78,-1 8.57,8.57 0 0 0 -2.42,0.13 l -2.4,0.25 -2.28,0.32 a 11.91,11.91 0 0 0 -2.2,0.59 c -0.26,0.08 -0.32,0.5 0,0.56 z"
     id="path18"
     style="fill:#f9f9f9" />
  <path
     d="m 81.145928,32.908896 a 5.61,5.61 0 0 0 -2.67,-1.12 5.94,5.94 0 0 0 -3,0.52 10.35,10.35 0 0 0 -2.67,1.6 6,6 0 0 0 -1.61,2.8 6.66,6.66 0 0 0 0.18,5.78 5.89,5.89 0 0 0 4.53,3 6.16,6.16 0 0 0 3.11,-0.5 c 0.87,-0.38 2.07,-1.23 2.28,-2.21 a 0.87,0.87 0 0 0 -1.24,-1 c -0.61,0.27 -1,0.81 -1.66,1.1 a 4.71,4.71 0 0 1 -1.8,0.47 4,4 0 0 1 -3.24,-1.53 4.37,4.37 0 0 1 -0.74,-3.95 6.4,6.4 0 0 1 0.91,-2.32 7.33,7.33 0 0 1 7.19,-1.88 0.45105432,0.45105432 0 0 0 0.47,-0.77 z"
     id="path19"
     style="fill:#f9f9f9" />
  <path
     d="m 83.375928,27.918896 c 0,1.44 -0.3,2.83 -0.33,4.27 -0.03,1.44 0,2.85 0,4.28 a 31,31 0 0 0 0.19,3.82 35.45,35.45 0 0 1 0.6,3.83 1.22,1.22 0 0 0 2.43,0 c 0.19,-1.27 -0.63,-2.58 -0.88,-3.81 a 23.9,23.9 0 0 1 -0.32,-3.88 c 0,-1.42 -0.09,-2.85 -0.19,-4.28 0,-0.62 0,-1.25 -0.13,-1.87 -0.11,-0.81 -0.33,-1.59 -0.39,-2.41 a 0.51,0.51 0 0 0 -1,0 z"
     id="path20"
     style="fill:#f9f9f9" />
  <path
     d="m 85.035928,36.848896 c 1.66,-1.15 4.47,-2.81 6.2,-0.93 0.81,0.88 0.4,2.43 0.29,3.54 -0.17,1.62 -0.28,3.25 -0.4,4.88 a 1.21,1.21 0 0 0 1.19,1.23 1.24,1.24 0 0 0 1.23,-1.19 c 0.15,-1.89 0.31,-3.77 0.4,-5.66 0.09,-1.71 0,-3.56 -1.59,-4.62 a 5,5 0 0 0 -4.13,-0.53 6.36,6.36 0 0 0 -3.4,3.06 c -0.07,0.13 0.08,0.32 0.21,0.22 z"
     id="path21"
     style="fill:#f9f9f9" />
  <path
     d="m 60.915928,13.338896 a 3.15,3.15 0 0 0 -0.23,1.32 c 0,0.48 0,1 0,1.44 0,0.92 0.07,1.84 0.09,2.77 0.06,1.88 0.06,3.77 0,5.66 a 0.86,0.86 0 0 0 1.72,0 c 0.06,-1.93 0,-3.85 0,-5.77 0,-1 -0.09,-1.92 -0.2,-2.88 -0.05,-0.44 -0.11,-0.87 -0.16,-1.31 a 3.09,3.09 0 0 0 -0.47,-1.28 0.41,0.41 0 0 0 -0.75,0.08 z"
     id="path22"
     style="fill:#f9f9f9" />
  <path
     d="m 61.875928,18.428896 c 0.07,-1.26 1.6,-2.12 2.67,-2.49 a 2.43,2.43 0 0 1 2.87,0.8 5.62,5.62 0 0 1 0.84,3.55 c 0,1.43 -0.09,2.85 -0.19,4.28 -0.1,1.43 2.14,1.33 2,0 -0.07,-0.9 -0.17,-1.8 -0.19,-2.7 -0.02,-0.9 0,-1.74 -0.11,-2.61 a 5.58,5.58 0 0 0 -2,-4.08 3.35,3.35 0 0 0 -1.9,-0.7 3.45,3.45 0 0 0 -2.09,0.81 c -1,0.73 -2.36,1.78 -2.3,3.14 a 0.18,0.18 0 0 0 0.35,0 z"
     id="path23"
     style="fill:#f9f9f9" />
  <path
     d="m 73.145928,13.768896 a 4.57,4.57 0 0 0 -0.32,1.31 c 0,0.4 0,0.81 0,1.21 0.05,0.91 0.14,1.81 0.22,2.72 a 16,16 0 0 1 -0.12,5.21 1.0119412,1.0119412 0 1 0 2,0.31 21.7,21.7 0 0 0 -0.29,-5.4 c -0.12,-0.87 -0.26,-1.74 -0.37,-2.6 0,-0.48 -0.09,-0.95 -0.12,-1.43 a 8.46,8.46 0 0 0 -0.27,-1.31 0.39,0.39 0 0 0 -0.75,0 z"
     id="path24"
     style="fill:#f9f9f9" />
  <path
     d="m 76.505928,10.088896 a 2.79,2.79 0 0 0 -2.56,-0.7099998 8,8 0 0 0 -1.54,0.27 7.47,7.47 0 0 1 -1.63,0.32 c -0.53,0 -1.06,0.05 -1.59,0.07 a 1.29,1.29 0 0 0 -0.45,0.07 0.85,0.85 0 0 1 -0.53,0.18 l -0.63,0.08 c -1,0.08 -2,0 -3,0.16 -0.09,0 -0.07,0.15 0,0.16 1,0.06 2,0 3,0 0.55,0 1,0.23 1.59,0.23 0.59,0 1,0 1.48,0 a 6,6 0 0 1 1.53,0.15 8.53,8.53 0 0 0 1.43,0.23 9.35,9.35 0 0 0 1.4,0 c 0.43,0 0.81,-0.15 1.23,-0.22 a 0.57,0.57 0 0 0 0.27,-0.94 z"
     id="path25"
     style="fill:#f9f9f9" />
  <path
     d="m 81.725928,8.2888962 c -0.6,1.11 -0.47,2.4799998 -0.71,3.6899998 a 24.94,24.94 0 0 0 -0.46,4.57 35.51,35.51 0 0 0 0.29,4.49 c 0.09,0.77 0.2,1.53 0.32,2.29 a 24.51,24.51 0 0 0 0.38,2.45 1.0938464,1.0938464 0 0 0 2.12,-0.54 c -0.12,-0.75 -0.43,-1.48 -0.58,-2.23 -0.15,-0.75 -0.27,-1.29 -0.38,-1.94 a 32.29,32.29 0 0 1 -0.5,-4.49 26,26 0 0 1 0.22,-4.29 7,7 0 0 0 0,-1.88 15,15 0 0 1 -0.41,-2.0999998 0.16,0.16 0 0 0 -0.29,-0.08 z"
     id="path26"
     style="fill:#f9f9f9" />
  <path
     d="m 85.765928,13.728896 c -3,-0.24 -5.92,-0.24 -8.85,-0.62 a 1.24,1.24 0 1 0 0,2.48 c 3,-0.33 6,-0.43 9,-0.94 0.54,-0.09 0.39,-0.88 -0.11,-0.92 z"
     id="path27"
     style="fill:#f9f9f9" />
  <path
     d="m 98.055928,12.968896 c -0.73,-0.08 -1.2,0.79 -1.47,1.37 a 17.61,17.61 0 0 0 -0.83,2.48 c -0.54,1.82 -1.1,3.65 -1.75,5.44 -0.31,0.87 -0.65,1.74 -1,2.59 a 6.56,6.56 0 0 1 -1.13,2.16 2.43,2.43 0 0 1 -1.92,0.55 c -0.68,-0.11 -0.32,-0.41 -0.16,-0.89 a 1,1 0 0 0 -1.16,-1.2 1.86,1.86 0 0 0 -1.06,2.38 2.63,2.63 0 0 0 1.91,1.81 4.22,4.22 0 0 0 3,-0.54 4.85,4.85 0 0 0 1.89,-2.45 58.29,58.29 0 0 0 2.45,-6.94 c 0.34,-1.15 0.66,-2.31 1,-3.46 q 0.26,-0.84 0.57,-1.68 c 0.19,-0.5 0.41,-0.83 0.17,-1.35 a 0.51,0.51 0 0 0 -0.45,-0.27 z"
     id="path28"
     style="fill:#f9f9f9" />
  <path
     d="m 49.745928,19.728896 a 23.11,23.11 0 0 0 3.8,0.69 c 1.3,0.12 2.61,0.19 3.92,0.21 a 0.86,0.86 0 0 0 0.74,-0.41 6.46,6.46 0 0 0 0.36,-3.54 4.23,4.23 0 0 0 -1.43,-3.06 4.77,4.77 0 0 0 -6.12,0.37 7.3,7.3 0 0 0 -1.9,2.81 8.42,8.42 0 0 0 -0.74,3.42 5.9,5.9 0 0 0 7.57,5.07 c 1,-0.29 2.45,-1.13 2.49,-2.27 a 0.38,0.38 0 0 0 -0.37,-0.38 2.44,2.44 0 0 0 -1,0.41 7.63,7.63 0 0 1 -1.14,0.48 4.41,4.41 0 0 1 -2.18,0.3 4,4 0 0 1 -3.37,-2.79 4.44,4.44 0 0 1 0.44,-2.6 6.53,6.53 0 0 1 1.1,-1.87 3.63,3.63 0 0 1 1.25,-1 c 0,0 0.22,-0.09 0.06,0 l 0.33,-0.1 a 3.55,3.55 0 0 1 0.47,-0.09 c -0.22,0 0,0 0.05,0 h 0.27 a 3.25,3.25 0 0 1 0.54,0 c 0,0 -0.18,0 0,0 a 2,2 0 0 1 0.33,0.08 1,1 0 0 1 0.24,0.09 c -0.18,-0.09 0.07,0 0.11,0.06 a 1,1 0 0 1 0.3,0.26 2.82,2.82 0 0 1 0.63,0.89 4.11,4.11 0 0 1 0.22,2.78 l 0.83,-0.61 c -1.27,0.08 -2.55,0.12 -3.82,0.11 -1.27,-0.01 -2.54,0 -3.82,0 a 0.35,0.35 0 0 0 -0.1,0.69 z"
     id="path29"
     style="fill:#f9f9f9" />
  <path
     d="m 95.495928,22.908896 a 19.64,19.64 0 0 0 -0.92,-3.32 12.69,12.69 0 0 0 -1.8,-3.06 12.67,12.67 0 0 0 -2.12,-2.43 4,4 0 0 1 -1,-1.17 9.73,9.73 0 0 0 -0.54,-1.23 0.16,0.16 0 0 0 -0.25,0 c -0.5,0.66 0.27,1.77 0.65,2.32 0.62,0.89 0.82,2 1.47,2.9 a 16.65,16.65 0 0 1 1.92,2.91 c 0.51,1.09 1,2.22 1.42,3.35 a 0.60392466,0.60392466 0 0 0 1.17,-0.3 z"
     id="path30"
     style="fill:#f9f9f9" />
</svg>
