<?xml version="1.0" encoding="UTF-8" standalone="no"?>
<svg
   id="Layer_1"
   data-name="Layer 1"
   viewBox="0 0 132.33 68.33"
   version="1.1"
   sodipodi:docname="Logo - grey.svg"
   inkscape:export-filename="Logo - white.png"
   inkscape:export-xdpi="960.50781"
   inkscape:export-ydpi="960.50781"
   inkscape:version="1.3.2 (091e20e, 2023-11-25, custom)"
   xmlns:inkscape="http://www.inkscape.org/namespaces/inkscape"
   xmlns:sodipodi="http://sodipodi.sourceforge.net/DTD/sodipodi-0.dtd"
   xmlns="http://www.w3.org/2000/svg"
   xmlns:svg="http://www.w3.org/2000/svg">
  <defs
     id="defs30" />
  <sodipodi:namedview
     id="namedview30"
     pagecolor="#ffffff"
     bordercolor="#000000"
     borderopacity="0.25"
     inkscape:showpageshadow="2"
     inkscape:pageopacity="0.0"
     inkscape:pagecheckerboard="0"
     inkscape:deskcolor="#d1d1d1"
     inkscape:zoom="9.816368"
     inkscape:cx="66.165001"
     inkscape:cy="34.17761"
     inkscape:window-width="1920"
     inkscape:window-height="1009"
     inkscape:window-x="-8"
     inkscape:window-y="-8"
     inkscape:window-maximized="1"
     inkscape:current-layer="Layer_1" />
  <path
     d="M33.11,41.43a.64.64,0,0,0,.08-.19.78.78,0,0,0-.34-.89,5.57,5.57,0,0,0-2.81-.2,7.86,7.86,0,0,0-2.68.7,3.81,3.81,0,0,0,0-1.26A2.64,2.64,0,0,0,27,38.48c-.07-.09-.15-.17-.23-.26a.67.67,0,0,0-.42-.91,1.29,1.29,0,0,0-1,.11l-.61.3a13.29,13.29,0,0,0-1.14.69l0,0a15.54,15.54,0,0,0-.9-1.65c-.41-.68-.69-1.72-1.5-2a.69.69,0,0,0-.45,0,.66.66,0,0,0-.54,0c-2.6.87-3.63,3.14-3.93,5.59-.6-.56-1.2-1.11-1.82-1.64s-1.52-1.5-2.5-1.23a1.21,1.21,0,0,0-.85,1.23c0,.2.07.39.1.59s0,.41,0,.61,0,.5,0,.74a5.14,5.14,0,0,0-.8-.12A8.56,8.56,0,0,0,9,40.67a1.51,1.51,0,0,0-1.34.9.81.81,0,0,0,.2.81,1,1,0,0,0,.37.25,10.07,10.07,0,0,0,3.41,6.43,11.54,11.54,0,0,0,3.86,2.19,18,18,0,0,0,2.27.69,7.65,7.65,0,0,0,1.05.17,3,3,0,0,0,1.38.88.94.94,0,0,0,1.12-1.17,10.38,10.38,0,0,0,2.37-3.34,12.92,12.92,0,0,0,.92-3.5,7.58,7.58,0,0,1,1.19-1c.65-.45,1.33-.89,2-1.31a6,6,0,0,1,2.29-.81c.41-.06.81-.1,1.22-.13a2.69,2.69,0,0,1,.8,0A17.64,17.64,0,0,1,31.21,45a13,13,0,0,1-1.74,3.68,7.52,7.52,0,0,1-3.37,1.94A7.5,7.5,0,0,1,24,51.1c-.65,0-1.25-.11-1.79.32a.36.36,0,0,0,.15.59c.69.23,1.31-.24,1.93-.51a19.46,19.46,0,0,1,2.27-.75A8,8,0,0,0,30,49c1.93-1.92,2.7-4.75,3-7.4A.8.8,0,0,0,33.11,41.43ZM12.49,38.85a0,0,0,0,1,0,0S12.49,38.84,12.49,38.85Zm0,.06Zm0,1.42c0-.37-.07-.74-.06-1.11l.4.28,1.06.63c.67.41,1.37.78,2.07,1.15a.39.39,0,0,0,.2,0,17.24,17.24,0,0,0,0,2.16l.06.81a6.36,6.36,0,0,0-.43-.59,8,8,0,0,0-.76-.88,14.89,14.89,0,0,0-2-1.36l-.51-.28Zm3.43,9.3a15.55,15.55,0,0,1-3.4-1.73,9,9,0,0,1-3.28-5.18c.36,0,.73-.12,1.05-.12a4.08,4.08,0,0,1,1.2.2s0,0,0,.06a.57.57,0,0,0,.77.23l.12,0c.6.26,1.16.55,1.74.84a8.07,8.07,0,0,1,.89.43,3.89,3.89,0,0,1,.78.68.39.39,0,0,0,.51,0A16.13,16.13,0,0,0,17,49c.12.34.28.73.46,1.13C17,50,16.45,49.82,15.94,49.63Zm4.83,1.46a7.41,7.41,0,0,1-.88-1A6.36,6.36,0,0,1,19,48.23a19.17,19.17,0,0,1-.58-4.4c-.14-2.41-.27-5.57,1.81-7.22a17.94,17.94,0,0,0,1.22,2.48c.13.29.24.59.36.89l-.28.35a.53.53,0,0,0,.13.71.5.5,0,0,0,.52.07,11,11,0,0,1,.38,2.21A14.3,14.3,0,0,1,20.77,51.09Zm3.86-8.25a12.73,12.73,0,0,0-.51-3l.28-.18c.36-.21.72-.4,1.09-.57h0c0,.08,0,.17,0,.25a.22.22,0,0,1,0,.08,2.09,2.09,0,0,1,0,.25,2.8,2.8,0,0,1,0,.5l-.09.47,0-.26a2,2,0,0,0-.06.84.69.69,0,0,0,.08.21s0,.08,0,.12a.67.67,0,0,0,.21.32c-.34.27-.68.56-1,.85Z"
     id="path1"
     style="fill:#f9f9f9" />
  <path
     d="M120.92,24a6.87,6.87,0,0,0,3.15-4.72,9,9,0,0,0,0-3,7.12,7.12,0,0,0-.49-1.75,7.81,7.81,0,0,0-.87-1.28c-2.41-3.43-6.09-7-10.66-6.49-.94.11-.54,1.76.37,1.42,1.1-.41,1.85.35,2.43,1.23A12.27,12.27,0,0,1,116,11.7c.61,1.57.75,3.48-.46,4.79-1,1.11-2,2.2-2,3.8a4.08,4.08,0,0,0,2,3.68c.88.44,2-.69,1.16-1.45A2.32,2.32,0,0,1,116.3,19c1.16-1.35,2.2-2.66,1.92-4.55A13.88,13.88,0,0,0,116,9.68a6.6,6.6,0,0,0-1.48-1.76,7.08,7.08,0,0,0-2.1-1.16l0,1.42c3.8-.83,7.86,1.93,9.41,5.34a9.17,9.17,0,0,1,.35,1.37c.12.42.29.81.39,1.24a7.52,7.52,0,0,1,.14,2.59,7.43,7.43,0,0,1-2.24,4.66.4.4,0,0,0,.46.63Z"
     id="path2"
     style="fill:#f9f9f9" />
  <path
     d="M120.14,23.66a25.08,25.08,0,0,0-2.43-.88,15.47,15.47,0,0,0-2.6-.57.76.76,0,0,0-.69.38,2,2,0,0,0-.24,1.86,1.79,1.79,0,0,0,1.12.91c.45.15.92.21,1.38.35s1.13.39,1.68.62,1.27.73,1.81.17a3.19,3.19,0,0,0,.62-1.36,2.22,2.22,0,0,0,.12-.72,2.9,2.9,0,0,0-.09-.59.44.44,0,0,0-.64-.27s0,.1,0,.07c.36-.2.59.32.42.59s-.18.25-.26.38a2.94,2.94,0,0,1-.66.75.88.88,0,0,0-.15.12c-.11.07-.1.08,0,0s.15,0,0-.08l-.52-.21q-.54-.21-1.11-.39c-.67-.22-1.4-.32-2.05-.6a1.49,1.49,0,0,1-.27-.15c-.08,0-.07,0-.11-.11s0,0,0,0,0-.08,0-.09a1.92,1.92,0,0,1,.25-.44l-.89.35a41.32,41.32,0,0,1,4.95,1,.57.57,0,0,0,.32-1.09Z"
     id="path3"
     style="fill:#f9f9f9" />
  <path
     d="M115,24.32c-.55,1.22-1.11,2.43-1.57,3.68a7.78,7.78,0,0,0-.81,3.68,1.76,1.76,0,0,0,.26.84,1,1,0,0,0,.71.3c.5.07,1,0,1.5,0a1.51,1.51,0,0,1,.68.19,2.32,2.32,0,0,0,.51.29c.26.07.59,0,.59-.33a.09.09,0,0,0-.14-.08c-.36.2-.51-.32-.68-.51a1.42,1.42,0,0,0-.72-.39,7.54,7.54,0,0,1-1.71-.28l.26.35c-.42-1.2.2-2.44.63-3.55.49-1.26.88-2.54,1.27-3.84.14-.45-.57-.8-.78-.34Z"
     id="path4"
     style="fill:#f9f9f9" />
  <path
     d="M119.26,26.13c-.52,1-1.07,1.93-1.57,2.92a15.28,15.28,0,0,0-.7,1.48c-.09.27-.2.53-.3.79a1.75,1.75,0,0,0-.21.73c0,.08.08.17.17.14a1.36,1.36,0,0,0,.52-.46l.53-.64a5.85,5.85,0,0,0,.53-.7q.22-.37.42-.75A21.3,21.3,0,0,0,120,26.47c.17-.45-.55-.77-.78-.34Z"
     id="path5"
     style="fill:#f9f9f9" />
  <path
     d="M105.61,53.17a12,12,0,0,0-2.12,5.11c-.14.9-.77,3.13.58,3.46s1.79-1.55,2.23-2.36c.88-1.62,2-3.09,3-4.62a32.6,32.6,0,0,0,4.28-10c.49-1.83.89-3.67,1.2-5.54a24.18,24.18,0,0,1,1.47-6.3c.2-.43-.49-.66-.57-.25-.58,3.07-1.94,5.94-2.72,9a48.45,48.45,0,0,1-3,9c-1.29,2.7-3.06,5.12-4.38,7.8-.23.46-.53,1.62-1,1.81s-.38.17-.21-.29l.11-.72c.07-.43.17-.85.28-1.27.39-1.55.78-3.1,1.3-4.6.1-.29-.3-.43-.46-.21Z"
     id="path6"
     style="fill:#f9f9f9" />
  <path
     d="M113.58,32c-2.16,3.3-3.63,7.12-5.21,10.72-.81,1.84-1.47,3.73-2.17,5.61a50.19,50.19,0,0,0-1.63,6c-.14.57.69,1,1,.44a54.58,54.58,0,0,0,2.55-5.21c.76-1.92,1.52-3.87,2.14-5.84C111.45,39.82,113,36,114,32.12a.22.22,0,0,0-.39-.17Z"
     id="path7"
     style="fill:#f9f9f9" />
  <path
     d="M31.44,22.36a2.42,2.42,0,0,0-.88-2.16,3.28,3.28,0,0,0-2.83-.74c-1.73.33-3.61,2-3.38,3.91S26.6,25.89,28,26.75c.53.31,1.24.92.92,1.61s-1.19,1-1.88,1.15a2.56,2.56,0,0,1-2.18,0,3.42,3.42,0,0,1-.79-.63c-.27-.29-.49-.71-.87-.87a.56.56,0,0,0-.71.22c-.23.38,0,.86.24,1.2a4.07,4.07,0,0,0,1.54,1.72,3.75,3.75,0,0,0,2.7.15,6.78,6.78,0,0,0,2.55-1.08,2.83,2.83,0,0,0,1.15-2.17,2.9,2.9,0,0,0-1.08-2.17,16.08,16.08,0,0,0-2.56-1.45c-.64-.37-1.16-1.07-.61-1.75a2.48,2.48,0,0,1,1-.68,2.34,2.34,0,0,1,.62-.15,3.94,3.94,0,0,1,.43,0,2.82,2.82,0,0,1,1.06.21,4.3,4.3,0,0,1,1.09.61.5.5,0,0,0,.84-.33Z"
     id="path8"
     style="fill:#f9f9f9" />
  <path
     d="M34.43,25.8a7.3,7.3,0,0,0,1.08.38c.31.07.63.11,1,.16l2.08.35c1.14.19,2.49.54,3.55-.11a3.43,3.43,0,0,0,1.25-3.33,4.72,4.72,0,0,0-1.63-3.38,4.09,4.09,0,0,0-3.64-.23,7.73,7.73,0,0,0-2.89,1.72c-1.58,1.5-2.91,4.13-2.22,6.34a4.31,4.31,0,0,0,2.46,2.64,6.87,6.87,0,0,0,1.83.48,8.8,8.8,0,0,0,2.17-.13c.12,0,.08-.19,0-.2a8.43,8.43,0,0,1-1.51-.31,7,7,0,0,1-1.55-.5,3.08,3.08,0,0,1-1.52-1.75A4.64,4.64,0,0,1,35,25.35a5.32,5.32,0,0,1,1.07-1.84A4.91,4.91,0,0,1,40,21.76a1.68,1.68,0,0,1,1.35,1.16,2.21,2.21,0,0,1-.1,2.44c-.71.88-2.05.43-3,.29l-1.8-.25a8.71,8.71,0,0,0-1.91-.06.24.24,0,0,0-.07.46Z"
     id="path9"
     style="fill:#f9f9f9" />
  <path
     d="M37.3,30.23a11.32,11.32,0,0,0,2.52.4c.42,0,.84,0,1.26,0a5.51,5.51,0,0,0,.71-.09,1.93,1.93,0,0,0,.79-.25A.83.83,0,0,0,42,28.78a2.17,2.17,0,0,0-.67.32l-.54.28a6.34,6.34,0,0,1-1,.46,7.07,7.07,0,0,1-2.42.31s-.05.07,0,.08Z"
     id="path10"
     style="fill:#f9f9f9" />
  <path
     d="M45.59,19.63c0,.92-.08,1.84,0,2.75s.11,1.77.14,2.66.05,1.78.05,2.66a18.34,18.34,0,0,1-.2,2.77c-.17,1.27,2,1.37,2,0A25,25,0,0,1,47.85,27a4.68,4.68,0,0,1,1.09-2.9,5.53,5.53,0,0,1,2.66-1.52,2.63,2.63,0,0,1,1.15-.05c.43.13.67.54.92.88a.59.59,0,0,0,1-.4c0-1.18-1.34-2-2.39-2.27-1.43-.32-2.93.73-4,1.57a5.89,5.89,0,0,0-2.14,3.53,27.37,27.37,0,0,0-.6,4.68l2,0c-.09-.94-.16-1.84-.18-2.78s-.06-1.84-.12-2.77-.12-1.84-.21-2.76a20.19,20.19,0,0,0-.54-2.68.49.49,0,0,0-1,.11Z"
     id="path11"
     style="fill:#f9f9f9" />
  <path
     d="M44.34,41.33a3.94,3.94,0,0,0-1.5-2.27,3.47,3.47,0,0,0-3.1-.39A5.39,5.39,0,0,0,37,40.07a2.28,2.28,0,0,0-.3,2.72,4,4,0,0,0,2.2,1.3,12.88,12.88,0,0,1,3,1.36,1.6,1.6,0,0,1,.65,1,5.86,5.86,0,0,1,.35,1.65,2.55,2.55,0,0,1-1.08,2A2.15,2.15,0,0,1,39.3,50a4.21,4.21,0,0,1-1.45-2.47.45.45,0,0,0-.86,0c-.76,1.74.92,3.7,2.53,4.18a4.21,4.21,0,0,0,4.64-1.94,3.93,3.93,0,0,0,.44-2.94A4.47,4.47,0,0,0,43,43.9a9.4,9.4,0,0,0-3-1.33c-.41-.12-2.1-.28-1.82-1,.16-.4.68-.62,1.05-.76A4.89,4.89,0,0,1,41,40.39c1.19,0,1.88.85,2.86,1.32a.35.35,0,0,0,.52-.38Z"
     id="path12"
     style="fill:#f9f9f9" />
  <path
     d="M47.46,34.4a13,13,0,0,0-.53,3.87c0,1.33.12,2.65.16,4a27.85,27.85,0,0,1-.62,7.94c-.41,1.53,2,2.23,2.36.69a20.83,20.83,0,0,0,0-8.1c-.39-2.75-.74-5.52-.87-8.3a.28.28,0,0,0-.54-.08Z"
     id="path13"
     style="fill:#f9f9f9" />
  <path
     d="M48.35,45.09a11.44,11.44,0,0,0,2.39-1.82,24.49,24.49,0,0,0,2-2.34,21,21,0,0,1,4.17-4.24A1.15,1.15,0,0,0,57.25,35a1.16,1.16,0,0,0-1.72-.15,23,23,0,0,0-3.88,4.85c-.54.84-1.11,1.67-1.71,2.47S48.73,43.87,48,44.65c-.2.22,0,.6.32.44Z"
     id="path14"
     style="fill:#f9f9f9" />
  <path
     d="M50.41,42.31c.23.7.48,1.38.75,2.06s.46,1.47.77,2.17a27.84,27.84,0,0,0,2.13,3.86,1.24,1.24,0,0,0,1.65.47,1.22,1.22,0,0,0,.46-1.65A31.46,31.46,0,0,1,54,45.38c-.3-.65-.59-1.3-.94-1.92a11.36,11.36,0,0,0-1.37-1.87.77.77,0,0,0-1.29.72Z"
     id="path15"
     style="fill:#f9f9f9" />
  <path
     d="M58.35,45.49a32.78,32.78,0,0,0,5.59.55c1.51,0,3.3.05,4.08-1.48s.14-3.05-.87-4.27a6.19,6.19,0,0,0-3.85-2.44,4.64,4.64,0,0,0-4,1.59,7.1,7.1,0,0,0-1.71,4.21,13.4,13.4,0,0,0,0,2.37,6.54,6.54,0,0,0,.56,2.58,7.59,7.59,0,0,0,3.56,2.68,5,5,0,0,0,2.52.22,9,9,0,0,0,2.56-.91c1.1-.55,3.23-1.78,2.56-3.3a.32.32,0,0,0-.49-.07,10.82,10.82,0,0,0-1,1.13,7.54,7.54,0,0,1-1.29,1c-1,.64-2.47,1.5-3.64.81a13,13,0,0,1-2.84-1.91c-.82-.82-.78-2.23-.8-3.32-.05-2,.57-4.83,3-5.17a3.68,3.68,0,0,1,2.73,1.14c.7.61,1.79,1.59,1.52,2.63-.15.57-.72.55-1.21.53-.78,0-1.55-.08-2.33-.06l-2.25.07a19.8,19.8,0,0,0-2.41.29.57.57,0,0,0,0,1.09Z"
     id="path16"
     style="fill:#f9f9f9" />
  <path
     d="M73.48,35.13a43.35,43.35,0,0,0-.66,9.1c0,1.52.08,3,.23,4.54.13,1.17,0,3.27,1.6,3.37s1.53-2.29,0-2.3H74.6l.81.36c.18.37.21.36.1,0l-.09-.45c-.06-.3-.11-.6-.16-.89-.11-.65-.23-1.3-.33-1.94a35.52,35.52,0,0,1-.4-3.83,74.21,74.21,0,0,1,.06-7.75c0-.62-1-.81-1.11-.17Z"
     id="path17"
     style="fill:#f9f9f9" />
  <path
     d="M69.36,40.84a11.86,11.86,0,0,0,2.21.37l2.32.06c.77,0,1.55,0,2.32-.05a9,9,0,0,0,2.43-.16,1.12,1.12,0,0,0,.81-1,1.08,1.08,0,0,0-.78-1,8.57,8.57,0,0,0-2.42.13l-2.4.25-2.28.32a11.91,11.91,0,0,0-2.2.59c-.26.08-.32.5,0,.56Z"
     id="path18"
     style="fill:#f9f9f9" />
  <path
     d="M88.77,39.62A5.61,5.61,0,0,0,86.1,38.5a5.94,5.94,0,0,0-3,.52,10.35,10.35,0,0,0-2.67,1.6,6,6,0,0,0-1.61,2.8A6.66,6.66,0,0,0,79,49.2a5.89,5.89,0,0,0,4.53,3,6.16,6.16,0,0,0,3.11-.5c.87-.38,2.07-1.23,2.28-2.21a.87.87,0,0,0-1.24-1c-.61.27-1,.81-1.66,1.1a4.71,4.71,0,0,1-1.8.47,4,4,0,0,1-3.24-1.53,4.37,4.37,0,0,1-.74-3.95,6.4,6.4,0,0,1,.91-2.32,7.33,7.33,0,0,1,7.19-1.88.45.45,0,0,0,.47-.77Z"
     id="path19"
     style="fill:#f9f9f9" />
  <path
     d="M91,34.63c0,1.44-.3,2.83-.33,4.27s0,2.85,0,4.28A31,31,0,0,0,90.86,47a35.45,35.45,0,0,1,.6,3.83,1.22,1.22,0,0,0,2.43,0c.19-1.27-.63-2.58-.88-3.81a23.9,23.9,0,0,1-.32-3.88c0-1.42-.09-2.85-.19-4.28,0-.62,0-1.25-.13-1.87-.11-.81-.33-1.59-.39-2.41a.51.51,0,0,0-1,0Z"
     id="path20"
     style="fill:#f9f9f9" />
  <path
     d="M92.66,43.56c1.66-1.15,4.47-2.81,6.2-.93.81.88.4,2.43.29,3.54-.17,1.62-.28,3.25-.4,4.88a1.21,1.21,0,0,0,1.19,1.23,1.24,1.24,0,0,0,1.23-1.19c.15-1.89.31-3.77.4-5.66.09-1.71,0-3.56-1.59-4.62a5,5,0,0,0-4.13-.53,6.36,6.36,0,0,0-3.4,3.06c-.07.13.08.32.21.22Z"
     id="path21"
     style="fill:#f9f9f9" />
  <path
     d="M68.54,20.05a3.15,3.15,0,0,0-.23,1.32c0,.48,0,1,0,1.44,0,.92.07,1.84.09,2.77.06,1.88.06,3.77,0,5.66a.86.86,0,0,0,1.72,0c.06-1.93,0-3.85,0-5.77,0-1-.09-1.92-.2-2.88-.05-.44-.11-.87-.16-1.31A3.09,3.09,0,0,0,69.29,20a.41.41,0,0,0-.75.08Z"
     id="path22"
     style="fill:#f9f9f9" />
  <path
     d="M69.5,25.14c.07-1.26,1.6-2.12,2.67-2.49a2.43,2.43,0,0,1,2.87.8A5.62,5.62,0,0,1,75.88,27c0,1.43-.09,2.85-.19,4.28s2.14,1.33,2,0c-.07-.9-.17-1.8-.19-2.7s0-1.74-.11-2.61a5.58,5.58,0,0,0-2-4.08,3.35,3.35,0,0,0-1.9-.7,3.45,3.45,0,0,0-2.09.81c-1,.73-2.36,1.78-2.3,3.14a.18.18,0,0,0,.35,0Z"
     id="path23"
     style="fill:#f9f9f9" />
  <path
     d="M80.77,20.48a4.57,4.57,0,0,0-.32,1.31c0,.4,0,.81,0,1.21.05.91.14,1.81.22,2.72a16,16,0,0,1-.12,5.21,1,1,0,1,0,2,.31,21.7,21.7,0,0,0-.29-5.4c-.12-.87-.26-1.74-.37-2.6,0-.48-.09-.95-.12-1.43a8.46,8.46,0,0,0-.27-1.31.39.39,0,0,0-.75,0Z"
     id="path24"
     style="fill:#f9f9f9" />
  <path
     d="M84.13,16.8a2.79,2.79,0,0,0-2.56-.71,8,8,0,0,0-1.54.27,7.47,7.47,0,0,1-1.63.32c-.53,0-1.06.05-1.59.07a1.29,1.29,0,0,0-.45.07.85.85,0,0,1-.53.18l-.63.08c-1,.08-2,0-3,.16-.09,0-.07.15,0,.16,1,.06,2,0,3,0,.55,0,1,.23,1.59.23s1,0,1.48,0a6,6,0,0,1,1.53.15,8.53,8.53,0,0,0,1.43.23,9.35,9.35,0,0,0,1.4,0c.43,0,.81-.15,1.23-.22a.57.57,0,0,0,.27-.94Z"
     id="path25"
     style="fill:#f9f9f9" />
  <path
     d="M89.35,15c-.6,1.11-.47,2.48-.71,3.69a24.94,24.94,0,0,0-.46,4.57,35.51,35.51,0,0,0,.29,4.49c.09.77.2,1.53.32,2.29a24.51,24.51,0,0,0,.38,2.45,1.09,1.09,0,0,0,2.12-.54c-.12-.75-.43-1.48-.58-2.23s-.27-1.29-.38-1.94a32.29,32.29,0,0,1-.5-4.49A26,26,0,0,1,90.05,19a7,7,0,0,0,0-1.88,15,15,0,0,1-.41-2.1.16.16,0,0,0-.29-.08Z"
     id="path26"
     style="fill:#f9f9f9" />
  <path
     d="M93.39,20.44c-3-.24-5.92-.24-8.85-.62a1.24,1.24,0,1,0,0,2.48c3-.33,6-.43,9-.94.54-.09.39-.88-.11-.92Z"
     id="path27"
     style="fill:#f9f9f9" />
  <path
     d="M105.68,19.68c-.73-.08-1.2.79-1.47,1.37a17.61,17.61,0,0,0-.83,2.48c-.54,1.82-1.1,3.65-1.75,5.44-.31.87-.65,1.74-1,2.59a6.56,6.56,0,0,1-1.13,2.16,2.43,2.43,0,0,1-1.92.55c-.68-.11-.32-.41-.16-.89a1,1,0,0,0-1.16-1.2,1.86,1.86,0,0,0-1.06,2.38,2.63,2.63,0,0,0,1.91,1.81,4.22,4.22,0,0,0,3-.54,4.85,4.85,0,0,0,1.89-2.45,58.29,58.29,0,0,0,2.45-6.94c.34-1.15.66-2.31,1-3.46q.26-.84.57-1.68c.19-.5.41-.83.17-1.35a.51.51,0,0,0-.45-.27Z"
     id="path28"
     style="fill:#f9f9f9" />
  <path
     d="M57.37,26.44a23.11,23.11,0,0,0,3.8.69c1.3.12,2.61.19,3.92.21a.86.86,0,0,0,.74-.41,6.46,6.46,0,0,0,.36-3.54,4.23,4.23,0,0,0-1.43-3.06,4.77,4.77,0,0,0-6.12.37,7.3,7.3,0,0,0-1.9,2.81A8.42,8.42,0,0,0,56,26.93,5.9,5.9,0,0,0,63.57,32c1-.29,2.45-1.13,2.49-2.27a.38.38,0,0,0-.37-.38,2.44,2.44,0,0,0-1,.41,7.63,7.63,0,0,1-1.14.48,4.41,4.41,0,0,1-2.18.3A4,4,0,0,1,58,27.75a4.44,4.44,0,0,1,.44-2.6,6.53,6.53,0,0,1,1.1-1.87,3.63,3.63,0,0,1,1.25-1s.22-.09.06,0l.33-.1a3.55,3.55,0,0,1,.47-.09c-.22,0,0,0,.05,0l.27,0a3.25,3.25,0,0,1,.54,0s-.18,0,0,0a2,2,0,0,1,.33.08,1,1,0,0,1,.24.09c-.18-.09.07,0,.11.06a1,1,0,0,1,.3.26,2.82,2.82,0,0,1,.63.89,4.11,4.11,0,0,1,.22,2.78l.83-.61c-1.27.08-2.55.12-3.82.11s-2.54,0-3.82,0a.35.35,0,0,0-.1.69Z"
     id="path29"
     style="fill:#f9f9f9" />
  <path
     d="M103.12,29.62a19.64,19.64,0,0,0-.92-3.32,12.69,12.69,0,0,0-1.8-3.06,12.67,12.67,0,0,0-2.12-2.43,4,4,0,0,1-1-1.17,9.73,9.73,0,0,0-.54-1.23.16.16,0,0,0-.25,0c-.5.66.27,1.77.65,2.32.62.89.82,2,1.47,2.9a16.65,16.65,0,0,1,1.92,2.91c.51,1.09,1,2.22,1.42,3.35a.6.6,0,0,0,1.17-.3Z"
     id="path30"
     style="fill:#f9f9f9" />
</svg>
